<svg xmlns="http://www.w3.org/2000/svg" width="1024" height="1024" viewBox="0 0 1024 1024">
<g>
<path d="M 0.00 0.00 L 1024.00 0.00 L 1024.00 1024.00 L 0.00 1024.00 ZM 521.08 570.02 C541.11,570.30 558.06,570.64 558.75,570.77 C559.44,570.90 560.00,570.38 560.00,569.62 C560.00,568.12 557.04,567.04 552.92,567.01 C551.45,567.01 548.71,565.59 546.59,563.75 C543.20,560.80 542.77,559.85 541.96,553.50 C541.47,549.65 541.05,531.09 541.03,512.25 C541.00,477.86 541.25,475.43 544.39,479.40 C548.98,485.20 579.83,523.19 585.53,530.06 C599.98,547.50 605.19,554.98 605.74,559.10 C606.37,563.81 604.10,566.99 600.10,567.01 C596.26,567.03 592.94,568.10 593.57,569.11 C594.46,570.55 672.25,570.25 671.77,568.81 C671.55,568.16 669.57,567.02 667.37,566.29 C663.56,565.02 656.44,559.03 650.97,552.50 C649.59,550.85 642.10,541.62 634.32,532.00 C626.53,522.38 608.43,499.99 594.08,482.26 C579.74,464.53 568.00,449.59 568.00,449.06 C568.00,447.82 595.68,413.21 612.80,393.04 C620.02,384.54 625.81,377.48 625.68,377.35 C625.55,377.22 623.14,377.65 620.31,378.31 C615.46,379.43 614.79,380.00 608.31,388.50 C575.70,431.24 542.96,471.36 541.72,470.12 C541.29,469.69 541.06,456.89 541.22,441.67 C541.49,414.59 541.25,412.24 538.45,414.91 C537.01,416.28 505.73,434.00 504.75,434.00 C504.28,434.00 503.94,459.31 504.00,490.25 C504.06,523.24 503.69,549.14 503.11,552.90 C501.71,561.85 498.10,565.56 489.84,566.52 C486.06,566.96 484.04,567.62 484.28,568.35 C484.56,569.17 495.01,569.65 521.08,570.02 ZM 418.68 574.54 C432.76,577.01 447.03,575.05 459.00,568.99 C465.41,565.75 475.70,555.47 478.99,549.03 C485.41,536.44 485.29,537.44 485.76,489.75 C486.00,465.69 485.88,446.00 485.50,446.00 C485.12,446.00 483.61,446.82 482.15,447.82 C477.32,451.12 459.39,461.00 458.22,461.00 C457.59,461.00 455.52,461.74 453.63,462.64 L 450.20 464.27 L 449.75 504.89 C449.37,538.89 449.02,546.48 447.61,551.50 C443.54,566.02 434.09,573.65 424.62,570.04 C420.05,568.31 418.78,564.88 417.97,552.12 C417.49,544.61 416.64,539.20 415.62,537.24 C412.62,531.42 404.79,527.83 398.54,529.40 C392.37,530.95 387.17,540.78 388.25,548.86 C390.00,561.85 401.45,571.52 418.68,574.54 ZM 450.62 432.86 C450.96,434.57 451.53,435.80 451.87,435.60 C452.22,435.40 458.80,431.42 466.50,426.76 C474.20,422.10 481.94,417.54 483.70,416.64 L 486.90 415.00 L 487.20 389.58 C487.50,364.24 487.51,364.15 489.92,361.58 C494.47,356.75 500.54,359.05 503.01,366.54 C503.60,368.31 504.23,377.35 504.42,386.63 C504.60,395.91 504.81,403.61 504.88,403.74 C504.95,403.87 507.81,402.26 511.25,400.17 C514.69,398.08 522.73,393.72 529.11,390.49 L 540.72 384.61 L 541.33 375.43 C541.66,370.38 542.48,365.03 543.16,363.54 C544.79,359.97 550.82,357.00 556.46,357.00 C560.24,357.00 561.00,356.68 561.00,355.12 C561.00,353.30 559.60,353.25 519.25,353.62 C496.28,353.83 466.78,354.00 453.69,354.00 C439.05,354.00 430.11,354.36 430.46,354.94 C430.78,355.46 433.17,356.19 435.77,356.57 C442.74,357.59 445.91,359.58 448.06,364.32 C449.79,368.13 449.96,371.20 449.98,399.12 C449.99,415.97 450.28,431.15 450.62,432.86 ZM 333.11 744.11 C333.88,744.60 341.59,744.92 350.25,744.83 C363.23,744.70 366.00,744.42 366.00,743.23 C366.00,742.20 365.30,741.96 363.56,742.40 C362.21,742.73 360.82,742.52 360.45,741.92 C360.08,741.32 358.91,741.05 357.85,741.33 C355.44,741.96 352.00,738.46 352.00,735.38 C352.00,734.15 354.10,727.59 356.66,720.82 C359.22,714.04 361.88,706.92 362.56,705.00 L 363.81 701.50 L 409.15 701.50 L 414.16 714.50 C420.57,731.16 422.09,736.10 421.43,738.19 C420.92,739.82 416.91,741.57 412.21,742.19 C410.95,742.36 409.83,742.95 409.71,743.50 C409.58,744.14 417.75,744.60 432.25,744.77 C445.27,744.92 455.00,744.65 455.00,744.14 C455.00,743.64 453.00,742.73 450.56,742.12 C444.46,740.58 440.62,735.71 435.44,722.90 C433.13,717.18 423.71,693.83 414.51,671.00 C405.31,648.17 397.29,628.26 396.67,626.75 C395.78,624.53 394.93,624.00 392.25,624.00 C389.97,624.00 388.76,624.55 388.38,625.75 C388.08,626.71 383.84,637.62 378.97,650.00 C374.10,662.38 368.79,676.10 367.17,680.50 C365.55,684.90 363.30,690.53 362.16,693.00 C361.02,695.47 358.67,701.33 356.92,706.00 C352.88,716.80 344.37,734.92 342.18,737.39 C341.26,738.44 338.53,740.17 336.11,741.25 C332.85,742.71 332.08,743.44 333.11,744.11 ZM 637.53 744.41 C639.71,745.21 644.65,745.89 648.50,745.92 C654.62,745.97 656.25,745.56 661.50,742.65 C665.04,740.68 669.20,737.23 671.66,734.23 C675.99,728.94 677.00,728.67 677.00,732.80 C677.00,736.58 680.78,741.85 685.06,744.03 C691.96,747.55 703.32,745.83 706.39,740.80 C707.80,738.49 706.36,737.30 703.97,738.79 C699.87,741.35 695.79,739.66 692.40,734.00 C691.90,733.17 691.28,718.78 691.00,702.00 L 690.50 671.50 L 687.81 666.92 C682.57,658.01 673.84,654.49 658.75,655.20 C648.68,655.67 642.45,658.03 635.78,663.89 C627.23,671.40 629.01,685.00 638.55,685.00 C640.98,685.00 642.86,684.23 644.55,682.55 C647.05,680.04 647.28,678.79 647.02,668.89 C646.91,664.92 647.34,662.80 648.47,661.68 C652.24,657.91 665.39,658.17 669.66,662.11 C674.41,666.48 675.95,671.48 675.98,682.59 L 676.00 692.68 L 670.75 693.81 C667.86,694.43 661.90,695.66 657.50,696.54 C640.29,699.98 630.49,705.74 626.30,714.87 C624.60,718.57 624.68,731.48 626.41,734.80 C628.52,738.84 633.07,742.77 637.53,744.41 ZM 348.86 484.87 C359.41,486.10 378.54,484.55 392.00,481.38 C418.49,475.16 456.86,456.11 517.00,419.32 C543.66,403.02 585.63,382.36 605.25,375.89 C622.34,370.25 637.64,367.74 654.50,367.81 C664.16,367.85 671.38,368.38 674.78,369.30 C682.31,371.33 682.31,369.48 674.78,367.17 C661.89,363.20 656.73,362.51 640.50,362.61 C627.33,362.68 622.26,363.16 611.85,365.34 C592.85,369.29 567.97,378.51 543.92,390.51 C526.88,399.00 497.62,415.46 483.50,424.48 C464.58,436.58 448.79,445.69 431.00,454.79 C407.48,466.82 400.95,469.69 385.00,475.03 C369.18,480.32 362.56,481.28 344.82,480.85 L 329.70 480.48 L 335.46 482.23 C338.63,483.20 344.66,484.38 348.86,484.87 ZM 478.00 744.46 C480.48,745.56 483.98,745.94 490.03,745.76 C500.87,745.43 506.57,742.73 512.88,734.95 C515.31,731.95 517.68,729.35 518.15,729.17 C518.62,728.98 519.00,732.25 519.00,736.42 L 519.00 744.00 L 526.85 744.00 C531.17,744.00 537.47,744.29 540.85,744.64 C546.15,745.20 547.00,745.06 547.00,743.64 C547.00,742.74 546.21,742.00 545.24,742.00 C543.15,742.00 535.82,738.24 534.77,736.62 C534.36,736.01 534.02,718.13 534.02,696.90 L 534.00 658.30 L 525.75 657.65 C513.59,656.71 506.00,656.85 506.00,658.03 C506.00,659.18 507.20,659.72 511.16,660.39 C512.63,660.63 514.76,661.34 515.91,661.95 C517.96,663.05 518.00,663.68 517.98,691.79 C517.96,717.43 517.76,720.93 516.13,724.52 C512.04,733.52 503.16,738.77 493.87,737.67 C487.35,736.90 484.77,735.17 481.30,729.26 L 478.50 724.50 L 478.19 690.75 L 477.88 657.00 L 463.94 657.00 C452.69,657.00 450.00,657.27 450.00,658.39 C450.00,659.90 452.09,661.00 454.97,661.00 C455.97,661.00 457.84,661.86 459.14,662.91 L 461.50 664.82 L 462.58 726.50 L 465.20 731.50 C468.29,737.39 473.12,742.28 478.00,744.46 ZM 552.00 743.63 C552.00,744.81 555.66,744.99 574.25,744.77 C588.24,744.60 596.50,744.13 596.50,743.50 C596.50,742.95 594.37,742.26 591.76,741.96 C585.87,741.28 581.85,738.38 580.71,733.97 C580.23,732.12 580.01,720.68 580.21,708.55 C580.55,688.40 580.78,686.00 582.89,680.69 C586.00,672.84 591.60,667.00 596.02,667.00 C599.44,667.00 603.00,669.34 603.00,671.58 C603.00,672.28 604.19,673.79 605.63,674.93 C612.67,680.46 621.14,673.97 619.04,664.66 C618.57,662.61 617.62,660.25 616.92,659.41 C613.37,655.13 604.13,653.66 597.72,656.35 C593.60,658.08 586.62,665.67 583.80,671.48 C582.59,673.97 581.28,676.00 580.90,676.00 C580.51,676.00 580.04,671.76 579.85,666.58 C579.66,661.40 579.28,656.95 579.00,656.69 C578.46,656.18 558.99,657.69 555.25,658.53 C552.16,659.23 552.42,660.84 555.75,661.56 C560.28,662.54 562.80,664.13 563.40,666.37 C563.72,667.54 563.98,683.62 563.99,702.10 L 564.00 735.71 L 561.61 738.29 C560.29,739.71 557.59,741.17 555.61,741.55 C553.49,741.94 552.00,742.81 552.00,743.63 ZM 660.92 737.02 C656.37,738.33 650.00,738.27 650.00,736.92 C650.00,736.32 649.49,736.00 648.87,736.21 C647.52,736.66 643.04,732.35 641.12,728.75 C638.83,724.44 641.48,712.48 645.79,707.66 C650.02,702.92 659.94,698.86 672.75,696.62 L 676.00 696.05 L 675.98 709.28 C675.96,719.89 675.60,723.29 674.14,726.50 C672.16,730.86 666.38,735.46 660.92,737.02 ZM 405.41 692.20 C406.28,694.23 406.65,696.03 406.24,696.20 C405.10,696.66 367.00,696.01 367.00,695.53 C367.00,691.89 378.40,660.46 380.47,658.39 C381.14,657.72 382.27,655.11 382.97,652.60 C385.25,644.45 386.25,644.95 391.26,656.75 C393.77,662.66 397.63,672.22 399.83,678.00 C402.04,683.78 404.55,690.16 405.41,692.20 ZM 966.19 987.42 C966.86,989.94 967.71,992.00 968.07,992.00 C968.43,992.00 969.54,989.87 970.54,987.26 C972.90,981.08 981.08,972.90 987.26,970.54 C989.87,969.54 992.00,968.41 992.00,968.02 C992.00,967.64 990.09,966.70 987.75,965.94 C982.03,964.09 972.92,954.99 970.54,948.75 C968.60,943.66 967.00,942.56 967.00,946.30 C967.00,952.30 956.19,963.84 948.42,966.13 C945.99,966.85 944.00,967.68 944.00,967.98 C944.00,968.28 946.32,969.36 949.16,970.36 C956.24,972.88 964.52,981.17 966.19,987.42 ZM 512.50 342.00 C513.28,343.26 528.68,343.33 529.46,342.07 C529.77,341.56 529.01,341.00 527.77,340.82 C525.09,340.44 524.29,337.60 524.12,327.75 C524.03,322.52 524.32,321.00 525.43,321.00 C526.97,321.00 542.00,337.37 542.00,339.04 C542.00,339.60 541.33,340.32 540.50,340.64 C539.67,340.95 539.00,341.62 539.00,342.11 C539.00,343.28 554.71,343.27 555.44,342.10 C555.75,341.60 554.70,340.36 553.11,339.35 C550.06,337.40 531.50,317.32 531.50,315.97 C531.50,314.54 545.91,300.00 548.48,298.83 C552.70,296.90 551.33,296.00 544.25,296.02 L 537.50 296.04 L 540.00 297.96 L 542.49 299.88 L 539.51 303.19 C531.38,312.24 525.57,317.85 524.83,317.39 C524.37,317.11 524.00,313.34 524.00,309.01 C524.00,301.20 524.85,298.93 528.23,297.73 C531.33,296.62 527.58,295.94 519.87,296.21 C511.67,296.49 511.56,296.53 514.50,298.01 L 517.50 299.53 L 517.77 318.88 C518.06,339.07 517.71,341.00 513.82,341.00 C512.75,341.00 512.16,341.45 512.50,342.00 ZM 487.50 342.65 C490.57,344.02 495.91,343.66 499.29,341.85 C500.29,341.31 501.98,339.44 503.05,337.69 C504.78,334.86 504.99,332.57 505.00,317.20 L 505.00 299.90 L 508.00 298.85 C513.24,297.02 511.26,296.00 502.50,296.00 C494.62,296.00 491.43,297.09 495.89,298.26 C497.56,298.70 497.87,300.15 498.51,310.31 C499.42,324.84 497.97,338.82 495.36,340.72 C492.42,342.88 490.74,341.80 489.58,337.00 C488.60,332.91 488.23,332.50 485.50,332.50 C482.95,332.50 482.45,332.93 482.18,335.31 C481.80,338.63 483.38,340.80 487.50,342.65 ZM 567.07 342.95 C573.91,345.81 583.00,340.54 583.00,333.71 C583.00,328.96 580.70,326.38 573.05,322.53 C566.96,319.46 565.00,317.63 565.00,314.99 C565.00,313.06 568.36,311.00 571.50,311.00 C574.78,311.00 576.14,312.10 579.69,317.64 C580.70,319.22 580.89,318.72 580.94,314.36 C580.99,309.67 580.80,309.21 578.75,309.20 C577.51,309.19 574.70,308.88 572.50,308.51 C569.23,307.95 567.86,308.26 565.01,310.19 C557.46,315.32 559.06,323.18 568.63,327.95 C575.62,331.43 577.00,332.77 577.00,336.10 C577.00,338.06 576.20,339.48 574.44,340.63 C572.04,342.20 571.65,342.20 568.38,340.65 C566.14,339.57 564.37,337.73 563.43,335.49 C561.28,330.35 559.85,331.13 560.20,337.25 C560.47,341.91 560.73,342.47 562.57,342.22 C563.71,342.06 565.74,342.39 567.07,342.95 ZM 610.56 358.48 C611.63,359.30 613.62,359.76 615.00,359.52 C616.38,359.27 619.17,358.78 621.21,358.43 C623.25,358.08 632.02,357.50 640.71,357.15 C653.79,356.61 656.50,356.24 656.50,355.00 C656.50,353.71 652.41,353.46 626.75,353.24 C601.71,353.01 597.00,353.19 597.00,354.38 C597.00,356.22 599.20,357.00 604.39,357.00 C606.72,357.00 609.49,357.67 610.56,358.48 ZM 478.85 815.00 L 479.00 822.00 L 484.88 822.00 C491.87,822.00 493.96,820.41 492.17,816.48 C491.55,815.12 491.30,812.73 491.62,811.17 C492.50,806.77 489.90,804.84 483.63,805.20 C480.28,805.40 478.53,805.93 478.60,806.75 C478.65,807.44 478.77,811.15 478.85,815.00 ZM 539.23 822.33 C542.20,823.52 545.26,822.83 547.67,820.42 C549.90,818.19 550.17,817.24 549.72,813.21 C548.53,802.66 537.51,802.15 535.55,812.56 C534.89,816.12 536.86,821.38 539.23,822.33 ZM 570.63 820.93 C572.08,822.07 574.19,823.00 575.31,823.00 C580.43,823.00 583.19,815.24 578.89,812.94 C577.72,812.32 575.45,812.00 573.84,812.24 C572.23,812.47 570.69,812.31 570.42,811.87 C569.47,810.33 574.00,807.00 577.06,807.00 C578.84,807.00 579.86,806.58 579.50,806.00 C578.31,804.08 572.97,804.94 570.45,807.45 C566.87,811.04 566.97,818.04 570.63,820.93 ZM 545.76 819.75 C544.38,821.47 541.46,821.32 539.57,819.43 C537.15,817.01 537.46,809.36 540.04,807.98 C542.92,806.44 545.59,807.58 546.98,810.96 C548.17,813.83 547.68,817.34 545.76,819.75 ZM 462.20 822.15 C464.05,823.32 474.00,823.20 474.00,822.00 C474.00,821.45 471.52,821.00 468.50,821.00 C463.06,821.00 463.00,820.97 463.00,818.00 C463.00,815.11 463.17,815.00 467.50,815.00 C469.98,815.00 472.00,814.55 472.00,814.00 C472.00,813.45 469.98,813.00 467.50,813.00 C464.28,813.00 463.00,812.60 463.00,811.58 C463.00,810.80 462.73,809.45 462.39,808.58 C461.88,807.24 462.75,807.00 468.09,807.00 C472.53,807.00 474.09,806.69 473.34,805.94 C472.76,805.36 469.86,805.02 466.89,805.19 L 461.50 805.50 L 461.20 813.41 C460.99,819.07 461.28,821.56 462.20,822.15 ZM 553.00 822.35 C553.00,822.71 555.70,823.00 559.00,823.00 C562.33,823.00 565.00,822.56 565.00,822.00 C565.00,821.45 562.89,821.00 560.30,821.00 L 555.61 821.00 L 559.24 817.67 C564.40,812.95 565.52,806.90 561.52,805.37 C559.61,804.64 553.00,805.81 553.00,806.88 C553.00,807.32 554.91,807.63 557.25,807.59 C563.46,807.46 563.56,810.42 557.57,816.83 C555.05,819.51 553.00,822.00 553.00,822.35 ZM 522.05 822.05 C524.01,823.29 533.00,823.25 533.00,822.00 C533.00,821.45 530.97,821.00 528.50,821.00 C526.03,821.00 524.00,820.83 524.00,820.62 C524.00,820.41 525.80,818.44 528.00,816.24 C532.26,811.98 532.98,809.12 530.43,806.57 C528.68,804.82 523.46,804.45 522.50,806.00 C522.14,806.58 523.14,807.00 524.91,807.00 C528.55,807.00 530.35,809.58 528.77,812.53 C528.18,813.61 526.11,815.99 524.15,817.82 C521.28,820.50 520.88,821.31 522.05,822.05 ZM 490.00 818.02 C490.00,820.93 489.89,821.00 484.94,821.00 L 479.87 821.00 L 480.19 817.75 C480.52,814.24 482.79,813.23 487.60,814.44 C489.46,814.90 490.00,815.71 490.00,818.02 ZM 554.97 306.31 C553.81,307.79 553.26,309.00 553.75,309.00 C555.63,309.00 559.10,304.14 559.65,300.74 C560.13,297.80 559.86,297.00 558.08,296.04 C555.38,294.60 552.00,295.59 552.02,297.82 C552.03,299.95 553.02,301.41 555.29,302.65 C556.99,303.57 556.97,303.77 554.97,306.31 ZM 489.00 811.50 C488.29,812.36 486.10,813.00 483.88,813.00 C480.24,813.00 480.00,812.82 480.00,810.00 C480.00,807.18 480.24,807.00 483.88,807.00 C488.49,807.00 490.94,809.16 489.00,811.50 ZM 506.47 814.50 C506.85,818.62 507.58,822.00 508.09,822.00 C508.59,822.00 509.00,818.17 509.00,813.50 C509.00,805.15 508.96,805.00 506.56,805.00 C505.22,805.00 503.84,805.45 503.50,806.00 C503.16,806.55 503.53,807.00 504.32,807.00 C505.39,807.00 505.95,808.96 506.47,814.50 ZM 444.88 818.00 C445.43,820.43 445.46,820.43 445.79,818.25 C446.13,816.08 447.09,815.60 453.00,814.67 C454.38,814.45 453.36,814.21 450.75,814.14 C446.01,814.00 446.00,813.99 446.00,810.50 L 446.00 807.00 L 451.75 806.91 C457.16,806.83 457.30,806.76 454.15,805.85 C452.30,805.32 449.38,805.03 447.65,805.19 C444.59,805.49 444.50,805.65 444.41,810.50 C444.36,813.25 444.58,816.62 444.88,818.00 ZM 577.95 819.56 C575.30,822.76 570.23,820.00 571.48,816.05 C572.35,813.31 576.57,813.32 578.03,816.06 C578.85,817.60 578.83,818.50 577.95,819.56 Z" fill="rgb(19,26,34)"/>
<path d="M 333.11 744.11 C332.08,743.44 332.85,742.71 336.11,741.25 C338.53,740.17 341.26,738.44 342.18,737.39 C344.37,734.92 352.88,716.80 356.92,706.00 C358.67,701.33 361.02,695.47 362.16,693.00 C363.30,690.53 365.55,684.90 367.17,680.50 C368.79,676.10 374.10,662.38 378.97,650.00 C383.84,637.62 388.08,626.71 388.38,625.75 C388.76,624.55 389.97,624.00 392.25,624.00 C392.30,624.00 392.34,624.00 392.39,624.00 C389.04,624.03 387.81,625.35 390.25,626.34 C390.94,626.61 392.10,626.65 392.83,626.42 C393.56,626.19 394.58,626.00 395.08,626.00 C395.48,626.00 395.82,625.72 395.95,625.33 C396.21,625.70 396.44,626.17 396.67,626.75 C397.29,628.26 405.31,648.17 414.51,671.00 C423.71,693.83 433.13,717.18 435.44,722.90 C440.62,735.71 444.46,740.58 450.56,742.12 C453.00,742.73 455.00,743.64 455.00,744.14 C455.00,744.65 445.27,744.92 432.25,744.77 C417.75,744.60 409.58,744.14 409.71,743.50 C409.83,742.95 410.95,742.36 412.21,742.19 C416.91,741.57 420.92,739.82 421.43,738.19 C422.09,736.10 420.57,731.16 414.16,714.50 L 409.15 701.50 L 363.81 701.50 L 362.56 705.00 C361.88,706.92 359.22,714.04 356.66,720.82 C354.10,727.59 352.00,734.15 352.00,735.38 C352.00,738.46 355.44,741.96 357.85,741.33 C358.91,741.05 360.08,741.32 360.45,741.92 C360.82,742.52 362.21,742.73 363.56,742.40 C365.30,741.96 366.00,742.20 366.00,743.23 C366.00,744.42 363.23,744.70 350.25,744.83 C341.59,744.92 333.88,744.60 333.11,744.11 ZM 418.68 574.54 C401.45,571.52 390.00,561.85 388.25,548.86 C387.17,540.78 392.37,530.95 398.54,529.40 C402.52,528.40 407.15,529.50 410.75,531.93 C408.66,530.54 406.22,529.63 403.70,529.38 C399.32,528.94 400.35,529.80 406.40,531.62 C407.99,532.11 410.67,534.21 412.35,536.29 C415.24,539.86 415.46,540.75 416.08,551.29 C416.81,563.46 417.26,565.35 420.32,568.75 C421.44,569.99 422.80,571.00 423.35,571.00 C423.88,571.00 423.47,570.07 422.45,568.89 C423.08,569.36 423.79,569.73 424.62,570.04 C434.09,573.65 443.54,566.02 447.61,551.50 C449.02,546.48 449.37,538.89 449.75,504.89 L 450.20 464.27 L 453.63 462.64 C455.52,461.74 457.59,461.00 458.22,461.00 C458.70,461.00 461.99,459.34 466.05,457.16 C462.63,459.05 459.45,460.77 457.25,461.87 C451.68,464.68 451.00,465.36 451.00,468.01 C451.00,469.66 451.45,471.00 452.00,471.00 C452.55,471.00 453.00,473.07 453.00,475.59 C453.00,480.35 455.50,485.00 457.67,484.28 C458.30,484.07 459.11,485.23 459.47,486.87 C459.83,488.51 461.38,491.79 462.92,494.17 C464.46,496.55 466.57,500.38 467.61,502.68 C469.02,505.79 470.45,507.23 473.25,508.35 C475.31,509.17 477.31,510.66 477.69,511.67 C478.08,512.68 478.94,514.06 479.62,514.75 C480.61,515.75 480.95,515.55 481.29,513.75 C481.53,512.51 481.86,513.75 482.03,516.50 L 482.33 521.50 L 483.67 510.50 L 483.84 516.58 C483.93,519.93 484.34,523.00 484.75,523.42 C485.16,523.83 485.62,506.74 485.76,485.43 C485.91,464.12 485.80,446.47 485.54,446.20 C485.45,446.12 485.31,446.08 485.14,446.10 C485.30,446.03 485.42,446.00 485.50,446.00 C485.88,446.00 486.00,465.69 485.76,489.75 C485.56,510.29 485.47,521.80 484.91,529.25 C484.56,526.54 483.25,528.54 482.26,533.90 C481.20,539.56 475.73,552.43 473.90,553.56 C473.41,553.86 472.54,554.99 471.97,556.06 C469.99,559.75 471.95,557.98 476.18,552.25 C479.45,547.83 482.58,541.24 484.08,536.10 C483.15,540.99 481.62,543.86 478.99,549.03 C475.70,555.47 465.41,565.75 459.00,568.99 C447.03,575.05 432.76,577.01 418.68,574.54 ZM 478.00 744.46 C473.12,742.28 468.29,737.39 465.20,731.50 L 462.58 726.50 L 461.50 664.82 L 459.14 662.91 C457.84,661.86 455.97,661.00 454.97,661.00 C452.09,661.00 450.00,659.90 450.00,658.39 C450.00,657.27 452.69,657.00 463.94,657.00 L 477.88 657.00 L 465.69 657.02 C457.45,657.03 453.99,657.34 455.00,658.00 C455.83,658.53 460.85,658.98 466.16,658.98 L 475.81 659.00 L 476.50 723.50 L 479.50 729.47 C481.89,734.22 483.40,735.90 486.91,737.72 C491.40,740.04 499.22,740.78 501.83,739.12 C502.63,738.62 500.66,738.13 496.61,737.81 C504.87,737.69 512.44,732.63 516.13,724.52 C517.76,720.93 517.96,717.43 517.98,691.79 C517.99,670.56 517.97,665.00 517.08,663.08 C518.78,664.82 519.00,666.49 519.00,676.72 C519.00,687.99 519.06,688.35 520.67,685.97 C521.59,684.61 522.47,683.33 522.64,683.11 C522.80,682.90 524.06,683.47 525.43,684.36 C528.75,686.54 528.99,686.46 529.07,683.25 C529.13,680.84 529.24,680.74 529.97,682.50 C530.60,684.03 530.89,683.32 531.22,679.50 C531.45,676.75 531.72,687.66 531.82,703.75 C531.94,722.46 532.36,733.00 533.00,733.00 C533.65,733.00 534.00,719.88 534.00,695.65 L 534.00 658.30 L 534.02 696.90 C534.02,718.13 534.36,736.01 534.77,736.62 C535.65,737.99 541.02,740.88 543.92,741.75 C542.72,741.40 541.08,740.72 539.64,739.95 C537.54,738.82 535.33,738.06 534.73,738.26 C533.05,738.82 539.21,742.77 542.53,743.26 C544.16,743.50 545.84,743.77 546.25,743.85 C546.58,743.92 546.86,743.68 546.96,743.30 C546.99,743.41 547.00,743.53 547.00,743.64 C547.00,745.06 546.15,745.20 540.85,744.64 C537.47,744.29 531.17,744.00 526.85,744.00 L 519.00 744.00 L 519.00 736.42 C519.00,732.25 518.62,728.98 518.15,729.17 C517.68,729.35 515.31,731.95 512.88,734.95 C506.57,742.73 500.87,745.43 490.03,745.76 C483.98,745.94 480.48,745.56 478.00,744.46 ZM 405.41 692.20 C404.55,690.16 402.04,683.78 399.83,678.00 C397.63,672.22 393.77,662.66 391.26,656.75 C386.25,644.95 385.25,644.45 382.97,652.60 C382.27,655.11 381.14,657.72 380.47,658.39 C378.40,660.46 367.00,691.89 367.00,695.53 C367.00,696.01 405.10,696.66 406.24,696.20 C406.65,696.03 406.28,694.23 405.41,692.20 ZM 348.86 484.87 C344.66,484.38 338.63,483.20 335.46,482.23 L 329.70 480.48 L 344.82 480.85 C362.56,481.28 369.18,480.32 385.00,475.03 C400.95,469.69 407.48,466.82 431.00,454.79 C444.27,448.00 456.42,441.21 469.59,433.18 C459.41,439.43 449.05,445.60 445.18,447.65 C436.49,452.25 430.00,456.10 430.00,456.65 C430.00,456.91 430.45,456.84 431.00,456.50 C431.55,456.16 432.00,456.39 432.00,457.00 C432.00,457.61 432.40,457.87 432.90,457.56 C433.39,457.26 434.90,457.59 436.26,458.29 C440.02,460.24 443.62,460.39 448.28,458.58 C424.81,470.63 406.60,477.95 392.00,481.38 C378.54,484.55 359.41,486.10 348.86,484.87 ZM 521.08 570.02 C495.01,569.65 484.56,569.17 484.28,568.35 C484.04,567.62 486.06,566.96 489.84,566.52 C498.10,565.56 501.71,561.85 503.11,552.90 C503.69,549.14 504.06,523.24 504.00,490.25 C503.94,459.31 504.28,434.00 504.75,434.00 C505.18,434.00 511.41,430.61 518.40,426.68 C511.41,430.61 505.18,434.00 504.76,434.00 C504.29,434.00 503.99,460.12 504.09,492.04 C504.27,549.21 504.30,550.11 506.36,552.79 C507.51,554.28 509.36,556.16 510.47,556.96 C511.59,557.77 514.57,560.36 517.10,562.71 C519.64,565.07 522.42,567.00 523.29,567.00 C524.17,567.00 525.09,567.34 525.35,567.75 C526.05,568.88 538.04,568.50 541.83,567.22 C544.66,566.26 544.99,566.31 544.01,567.49 C542.77,568.98 544.81,569.59 553.50,570.33 C555.00,570.45 556.57,570.60 557.63,570.71 C553.48,570.55 538.43,570.27 521.08,570.02 ZM 552.00 743.63 C552.00,742.81 553.49,741.94 555.61,741.55 C557.59,741.17 560.29,739.71 561.61,738.29 L 564.00 735.71 L 563.99 702.10 C563.98,683.62 563.72,667.54 563.40,666.37 C563.04,665.04 562.01,663.94 560.28,663.06 C562.01,663.93 563.08,665.03 563.51,666.37 C563.88,667.54 564.47,676.83 564.80,687.00 C565.17,698.26 565.67,703.94 566.06,701.50 C566.69,697.65 567.36,715.77 567.03,727.50 C566.95,730.25 567.59,734.19 568.45,736.25 C569.32,738.31 569.91,740.33 569.76,740.75 C569.62,741.16 571.20,741.64 573.27,741.81 C575.34,741.98 576.83,742.46 576.57,742.88 C576.32,743.30 577.43,743.64 579.05,743.64 C581.97,743.64 581.98,743.62 580.34,741.07 C578.74,738.57 578.75,738.55 580.60,740.10 C582.21,741.46 587.17,743.10 592.79,744.16 C589.09,744.45 582.72,744.67 574.25,744.77 C555.66,744.99 552.00,744.81 552.00,743.63 ZM 478.85 815.00 C478.77,811.15 478.65,807.44 478.60,806.75 C478.53,805.93 480.28,805.40 483.63,805.20 C489.90,804.84 492.50,806.77 491.62,811.17 C491.30,812.73 491.55,815.12 492.17,816.48 C493.96,820.41 491.87,822.00 484.88,822.00 L 479.00 822.00 ZM 539.23 822.33 C536.86,821.38 534.89,816.12 535.55,812.56 C537.51,802.15 548.53,802.66 549.72,813.21 C550.17,817.24 549.90,818.19 547.67,820.42 C545.26,822.83 542.20,823.52 539.23,822.33 ZM 570.63 820.93 C566.97,818.04 566.87,811.04 570.45,807.45 C572.97,804.94 578.31,804.08 579.50,806.00 C579.86,806.58 578.84,807.00 577.06,807.00 C574.00,807.00 569.47,810.33 570.42,811.87 C570.69,812.31 572.23,812.47 573.84,812.24 C575.45,812.00 577.72,812.32 578.89,812.94 C583.19,815.24 580.43,823.00 575.31,823.00 C574.19,823.00 572.08,822.07 570.63,820.93 ZM 545.76 819.75 C547.68,817.34 548.17,813.83 546.98,810.96 C545.59,807.58 542.92,806.44 540.04,807.98 C537.46,809.36 537.15,817.01 539.57,819.43 C541.46,821.32 544.38,821.47 545.76,819.75 ZM 462.20 822.15 C461.28,821.56 460.99,819.07 461.20,813.41 L 461.50 805.50 L 466.89 805.19 C469.86,805.02 472.76,805.36 473.34,805.94 C474.09,806.69 472.53,807.00 468.09,807.00 C462.75,807.00 461.88,807.24 462.39,808.58 C462.73,809.45 463.00,810.80 463.00,811.58 C463.00,812.60 464.28,813.00 467.50,813.00 C469.98,813.00 472.00,813.45 472.00,814.00 C472.00,814.55 469.98,815.00 467.50,815.00 C463.17,815.00 463.00,815.11 463.00,818.00 C463.00,820.97 463.06,821.00 468.50,821.00 C471.52,821.00 474.00,821.45 474.00,822.00 C474.00,823.20 464.05,823.32 462.20,822.15 ZM 553.00 822.35 C553.00,822.00 555.05,819.51 557.57,816.83 C563.56,810.42 563.46,807.46 557.25,807.59 C554.91,807.63 553.00,807.32 553.00,806.88 C553.00,805.81 559.61,804.64 561.52,805.37 C565.52,806.90 564.40,812.95 559.24,817.67 L 555.61 821.00 L 560.30 821.00 C562.89,821.00 565.00,821.45 565.00,822.00 C565.00,822.56 562.33,823.00 559.00,823.00 C555.70,823.00 553.00,822.71 553.00,822.35 ZM 522.05 822.05 C520.88,821.31 521.28,820.50 524.15,817.82 C526.11,815.99 528.18,813.61 528.77,812.53 C530.35,809.58 528.55,807.00 524.91,807.00 C523.14,807.00 522.14,806.58 522.50,806.00 C523.46,804.45 528.68,804.82 530.43,806.57 C532.98,809.12 532.26,811.98 528.00,816.24 C525.80,818.44 524.00,820.41 524.00,820.62 C524.00,820.83 526.03,821.00 528.50,821.00 C530.97,821.00 533.00,821.45 533.00,822.00 C533.00,823.25 524.01,823.29 522.05,822.05 ZM 490.00 818.02 C490.00,815.71 489.46,814.90 487.60,814.44 C482.79,813.23 480.52,814.24 480.19,817.75 L 479.87 821.00 L 484.94 821.00 C489.89,821.00 490.00,820.93 490.00,818.02 ZM 489.00 811.50 C490.94,809.16 488.49,807.00 483.88,807.00 C480.24,807.00 480.00,807.18 480.00,810.00 C480.00,812.82 480.24,813.00 483.88,813.00 C486.10,813.00 488.29,812.36 489.00,811.50 ZM 506.47 814.50 C505.95,808.96 505.39,807.00 504.32,807.00 C503.53,807.00 503.16,806.55 503.50,806.00 C503.84,805.45 505.22,805.00 506.56,805.00 C508.96,805.00 509.00,805.15 509.00,813.50 C509.00,818.17 508.59,822.00 508.09,822.00 C507.58,822.00 506.85,818.62 506.47,814.50 ZM 444.88 818.00 C444.58,816.62 444.36,813.25 444.41,810.50 C444.50,805.65 444.59,805.49 447.65,805.19 C449.38,805.03 452.30,805.32 454.15,805.85 C457.30,806.76 457.16,806.83 451.75,806.91 L 446.00 807.00 L 446.00 810.50 C446.00,813.99 446.01,814.00 450.75,814.14 C453.36,814.21 454.38,814.45 453.00,814.67 C447.09,815.60 446.13,816.08 445.79,818.25 C445.46,820.43 445.43,820.43 444.88,818.00 ZM 577.95 819.56 C578.83,818.50 578.85,817.60 578.03,816.06 C576.57,813.32 572.35,813.31 571.48,816.05 C570.23,820.00 575.30,822.76 577.95,819.56 ZM 488.50 568.00 C488.13,568.60 489.49,569.00 491.94,569.00 C494.17,569.00 496.00,568.55 496.00,568.00 C496.00,567.45 494.45,567.00 492.56,567.00 C490.67,567.00 488.84,567.45 488.50,568.00 ZM 580.00 742.62 C580.00,743.74 578.12,742.76 577.58,741.36 C577.06,739.99 577.20,739.92 578.48,740.98 C579.31,741.68 580.00,742.41 580.00,742.62 ZM 420.35 566.29 C418.82,563.91 418.55,561.18 417.97,552.17 C418.44,559.44 419.05,563.67 420.35,566.29 ZM 482.19 440.03 C493.06,433.71 506.62,425.67 516.52,419.62 C504.19,427.16 492.77,433.95 482.19,440.03 ZM 592.13 742.00 L 592.09 742.00 C589.37,742.00 586.69,741.02 584.59,739.46 C586.46,740.76 588.89,741.62 591.76,741.96 C591.89,741.97 592.01,741.98 592.13,742.00 ZM 515.76 661.87 C514.97,661.48 513.82,661.06 512.73,660.75 C513.21,660.81 513.72,660.87 514.25,660.93 C514.51,660.95 515.09,661.33 515.76,661.87 ZM 506.01 658.20 C506.00,658.15 506.00,658.09 506.00,658.03 C506.00,657.65 506.78,657.38 508.25,657.22 C506.84,657.43 506.11,657.79 506.01,658.20 ZM 514.27 657.05 C517.37,657.10 521.25,657.30 525.75,657.65 C522.22,657.38 517.63,657.14 514.27,657.05 ZM 483.53 446.93 C483.14,447.22 482.48,447.64 481.62,448.17 C481.81,448.05 481.99,447.93 482.15,447.82 C482.62,447.50 483.09,447.20 483.53,446.93 ZM 507.94 659.70 C507.09,659.44 506.57,659.17 506.28,658.83 C506.59,659.12 507.15,659.42 507.94,659.70 ZM 483.95 733.13 C483.07,732.09 482.21,730.82 481.30,729.26 C482.21,730.82 483.07,732.09 483.95,733.13 ZM 581.00 734.90 C580.90,734.62 580.81,734.34 580.73,734.05 C580.73,734.03 580.72,734.00 580.71,733.98 C580.80,734.29 580.89,734.60 581.00,734.90 Z" fill="rgb(121,75,56)"/>
<path d="M 558.00 570.13 C558.00,570.36 558.11,570.58 558.28,570.73 C558.11,570.73 557.89,570.72 557.63,570.71 C556.57,570.60 555.00,570.45 553.50,570.33 C544.81,569.59 542.77,568.98 544.01,567.49 C544.99,566.31 544.66,566.26 541.83,567.22 C538.04,568.50 526.05,568.88 525.35,567.75 C525.09,567.34 524.17,567.00 523.29,567.00 C522.42,567.00 519.64,565.07 517.10,562.71 C514.57,560.36 511.59,557.77 510.47,556.96 C509.36,556.16 507.51,554.28 506.36,552.79 C504.30,550.11 504.27,549.21 504.09,492.04 C503.99,460.12 504.29,434.00 504.76,434.00 C505.18,434.00 511.36,430.64 518.31,426.73 L 518.40 426.68 C523.46,423.83 528.92,420.70 532.87,418.37 C528.95,420.83 525.11,423.45 525.37,423.70 C526.54,424.87 531.96,422.66 534.55,419.95 C536.10,418.33 537.74,417.00 538.19,417.00 C538.63,417.00 539.00,429.38 539.00,444.50 C539.00,465.83 539.28,472.00 540.25,472.00 C540.80,472.00 541.13,469.94 541.31,464.09 C541.40,467.71 541.54,469.94 541.72,470.12 C542.44,470.84 553.78,457.62 569.54,438.04 C561.81,447.87 555.99,455.48 555.97,455.81 C555.96,456.19 553.70,458.93 550.96,461.90 C548.21,464.87 546.25,467.57 546.60,467.90 C546.95,468.23 548.19,467.16 549.37,465.52 C550.54,463.87 552.94,461.04 554.71,459.21 C557.60,456.21 558.14,456.01 560.21,457.15 C561.47,457.85 563.11,458.30 563.85,458.14 C564.59,457.99 565.94,458.51 566.85,459.30 C567.76,460.09 569.55,460.64 570.82,460.53 C572.40,460.39 573.87,461.31 575.42,463.41 C578.60,467.71 579.54,469.45 578.26,468.66 C576.78,467.75 577.17,476.15 578.68,477.75 C580.26,479.43 581.00,479.32 581.00,477.43 C581.00,476.05 581.21,476.06 582.69,477.55 C584.29,479.14 584.43,479.13 585.12,477.37 C585.86,475.49 585.98,475.74 586.37,480.00 C586.44,480.82 587.06,481.55 587.75,481.62 C588.44,481.69 589.43,481.81 589.95,481.88 C591.29,482.05 597.32,491.01 596.59,491.74 C595.73,492.61 599.05,496.00 600.76,496.00 C601.63,496.00 601.99,496.59 601.65,497.47 C600.84,499.58 602.96,503.15 607.32,506.97 C609.40,508.80 610.88,510.88 610.60,511.60 C609.91,513.40 612.69,518.66 614.77,519.49 C615.72,519.87 617.62,520.37 619.00,520.61 C621.67,521.08 627.02,526.22 626.96,528.27 C626.95,528.94 626.29,528.38 625.50,527.00 C623.30,523.16 623.74,525.52 626.01,529.75 C627.11,531.81 627.61,533.63 627.11,533.80 C625.99,534.17 626.91,538.00 628.12,538.00 C628.60,538.00 629.00,538.88 629.00,539.95 C629.00,543.46 631.30,547.05 634.43,548.43 C639.59,550.71 640.85,550.94 641.36,549.69 C641.63,549.04 641.72,549.92 641.57,551.66 C641.30,554.66 641.41,554.77 643.64,553.75 C644.94,553.16 646.00,552.25 646.00,551.73 C646.00,551.21 646.86,551.84 647.91,553.14 C648.96,554.43 649.48,555.72 649.06,556.00 C647.71,556.89 645.91,560.98 645.52,564.03 C645.24,566.29 645.55,567.00 646.82,567.02 C648.21,567.03 648.25,567.19 647.08,567.93 C646.00,568.61 646.38,568.94 648.58,569.27 C649.73,569.44 653.16,569.62 657.10,569.74 C634.64,570.29 594.21,570.15 593.57,569.11 C592.94,568.10 596.26,567.03 600.10,567.01 C604.10,566.99 606.37,563.81 605.74,559.10 C605.19,554.98 599.98,547.50 585.53,530.06 C579.83,523.19 548.98,485.20 544.39,479.40 C541.25,475.43 541.00,477.86 541.03,512.25 C541.05,530.11 541.43,547.72 541.88,552.78 C541.43,548.26 541.05,530.67 541.03,512.75 C541.01,490.94 540.65,479.00 540.00,479.00 C538.72,479.00 538.68,551.89 539.96,557.50 C541.24,563.11 546.77,567.77 553.15,568.61 C555.82,568.97 558.00,569.65 558.00,570.13 ZM 450.62 432.86 C450.28,431.15 449.99,415.97 449.98,399.12 C449.96,371.20 449.79,368.13 448.06,364.32 C445.91,359.58 442.74,357.59 435.77,356.57 C434.24,356.35 432.78,356.00 431.77,355.65 C433.09,356.02 435.40,356.16 438.21,356.03 C441.67,355.87 450.33,355.83 457.45,355.94 C469.10,356.13 470.58,356.36 472.17,358.20 C473.14,359.32 474.17,360.97 474.46,361.87 C474.75,362.77 476.94,364.54 479.34,365.81 L 483.69 368.11 L 484.37 386.98 C484.74,397.36 484.75,407.69 484.40,409.93 C483.96,412.67 484.11,414.00 484.87,414.00 C485.67,414.00 486.01,408.73 486.04,396.25 C486.08,379.97 486.58,370.97 487.90,365.94 C487.44,369.18 487.37,375.46 487.20,389.58 L 486.90 415.00 L 483.70 416.64 C481.94,417.54 474.20,422.10 466.50,426.76 C458.80,431.42 452.22,435.40 451.87,435.60 C451.53,435.80 450.96,434.57 450.62,432.86 ZM 637.53 744.41 C633.07,742.77 628.52,738.84 626.41,734.80 C624.68,731.48 624.60,718.57 626.30,714.87 C630.49,705.74 640.29,699.98 657.50,696.54 C658.84,696.27 660.33,695.97 661.84,695.67 C654.47,697.20 647.00,699.39 647.00,700.42 C647.00,700.63 649.04,700.19 651.52,699.44 C654.01,698.69 656.75,698.35 657.62,698.68 C658.76,699.12 663.00,698.61 666.99,697.79 C656.99,700.14 649.36,703.65 645.79,707.66 C641.48,712.48 638.83,724.44 641.12,728.75 C643.04,732.35 647.52,736.66 648.87,736.21 C649.49,736.00 650.00,736.32 650.00,736.92 C650.00,738.27 656.37,738.33 660.92,737.02 C666.38,735.46 672.16,730.86 674.14,726.50 C675.60,723.29 675.96,719.89 675.98,709.28 L 676.00 696.05 L 672.75 696.62 C671.56,696.83 670.39,697.05 669.25,697.29 C671.96,696.64 674.22,695.90 674.82,695.30 C675.91,694.23 675.72,694.00 673.70,694.00 C671.22,694.00 667.11,694.60 662.85,695.46 C665.93,694.83 668.94,694.20 670.75,693.81 L 676.00 692.68 L 675.98 682.59 C675.97,677.45 675.63,673.62 674.80,670.56 C675.58,673.12 675.97,676.01 675.98,679.25 C675.99,683.07 676.43,686.00 677.00,686.00 C677.55,686.00 678.00,685.53 678.00,684.96 C678.00,684.27 678.60,684.25 679.86,684.92 C680.88,685.47 683.35,686.03 685.36,686.16 L 689.00 686.41 L 689.00 706.07 C689.00,732.21 690.36,738.69 696.29,740.90 C700.01,742.30 705.26,741.86 706.65,740.32 C706.58,740.47 706.49,740.63 706.39,740.80 C703.32,745.83 691.96,747.55 685.06,744.03 C680.78,741.85 677.00,736.58 677.00,732.80 C677.00,728.67 675.99,728.94 671.66,734.23 C669.20,737.23 665.04,740.68 661.50,742.65 C656.25,745.56 654.62,745.97 648.50,745.92 C644.65,745.89 639.71,745.21 637.53,744.41 ZM 616.68 670.61 C616.34,672.68 616.52,673.92 617.16,674.00 C614.49,677.26 609.81,678.21 605.63,674.93 C604.19,673.79 603.00,672.28 603.00,671.58 C603.00,669.34 599.44,667.00 596.02,667.00 C592.15,667.00 587.39,671.47 584.17,677.83 C584.85,675.99 585.41,674.25 585.59,673.25 C585.72,672.57 585.43,671.77 584.95,671.47 C583.45,670.54 581.19,676.32 579.48,685.46 C577.43,696.37 577.65,734.00 579.78,737.74 C581.01,739.89 583.99,741.81 587.84,743.03 C584.42,742.11 581.71,741.04 580.60,740.10 C578.75,738.55 578.74,738.57 580.34,741.07 C581.98,743.62 581.97,743.64 579.05,743.64 C577.43,743.64 576.32,743.30 576.57,742.88 C576.83,742.46 575.34,741.98 573.27,741.81 C571.20,741.64 569.62,741.16 569.76,740.75 C569.91,740.33 569.32,738.31 568.45,736.25 C567.59,734.19 566.95,730.25 567.03,727.50 C567.36,715.77 566.69,697.65 566.06,701.50 C565.67,703.94 565.17,698.26 564.80,687.00 C564.47,676.83 563.88,667.54 563.51,666.37 C563.08,665.04 562.02,663.94 560.29,663.06 L 560.28 663.06 C559.10,662.46 557.59,661.96 555.75,661.56 C552.42,660.84 552.16,659.23 555.25,658.53 C558.99,657.69 578.46,656.18 579.00,656.69 C579.28,656.95 579.66,661.40 579.85,666.58 C580.04,671.76 580.51,676.00 580.90,676.00 C581.28,676.00 582.59,673.97 583.80,671.48 C586.62,665.67 593.60,658.08 597.72,656.35 C598.95,655.84 600.28,655.47 601.66,655.25 L 605.69 656.05 C607.99,656.50 611.01,657.62 612.39,658.52 C615.46,660.53 617.42,666.05 616.68,670.61 ZM 483.53 446.93 C484.18,446.55 484.76,446.24 485.14,446.10 C485.31,446.08 485.45,446.12 485.54,446.20 C485.80,446.47 485.91,464.12 485.76,485.43 C485.62,506.74 485.16,523.83 484.75,523.42 C484.34,523.00 483.93,519.93 483.84,516.58 L 483.67 510.50 L 482.33 521.50 L 482.03 516.50 C481.86,513.75 481.53,512.51 481.29,513.75 C480.95,515.55 480.61,515.75 479.62,514.75 C478.94,514.06 478.08,512.68 477.69,511.67 C477.31,510.66 475.31,509.17 473.25,508.35 C470.45,507.23 469.02,505.79 467.61,502.68 C466.57,500.38 464.46,496.55 462.92,494.17 C461.38,491.79 459.83,488.51 459.47,486.87 C459.11,485.23 458.30,484.07 457.67,484.28 C455.50,485.00 453.00,480.35 453.00,475.59 C453.00,473.07 452.55,471.00 452.00,471.00 C451.45,471.00 451.00,469.66 451.00,468.01 C451.00,465.36 451.68,464.68 457.25,461.87 C459.45,460.77 462.63,459.05 466.05,457.16 C471.55,454.19 478.46,450.25 481.62,448.17 C482.48,447.64 483.14,447.22 483.53,446.93 ZM 482.19 440.03 C469.79,447.16 458.53,453.32 448.28,458.58 C443.62,460.39 440.02,460.24 436.26,458.29 C434.90,457.59 433.39,457.26 432.90,457.56 C432.40,457.87 432.00,457.61 432.00,457.00 C432.00,456.39 431.55,456.16 431.00,456.50 C430.45,456.84 430.00,456.91 430.00,456.65 C430.00,456.10 436.49,452.25 445.18,447.65 C449.05,445.60 459.41,439.43 469.59,433.18 C474.08,430.44 478.69,427.56 483.50,424.48 C493.58,418.04 511.38,407.80 526.94,399.39 C517.49,404.52 510.91,408.55 512.21,408.80 C514.20,409.19 519.42,406.62 523.41,403.29 C525.56,401.49 526.99,401.03 528.90,401.51 C532.90,402.51 534.16,403.88 532.71,405.64 C529.42,409.62 527.38,411.00 524.81,411.00 C523.27,411.00 522.00,411.19 522.00,411.42 C522.00,411.65 521.72,412.55 521.39,413.43 C520.62,415.43 522.97,414.68 527.98,411.33 C529.90,410.05 532.17,409.00 533.03,409.00 C533.90,409.00 540.51,405.83 547.72,401.96 C555.08,398.01 564.48,393.40 573.74,389.11 C554.77,398.05 533.10,409.48 517.00,419.32 L 516.52 419.62 L 516.50 419.63 C506.60,425.68 493.06,433.71 482.19,440.03 ZM 515.76 661.87 C515.09,661.33 514.51,660.95 514.25,660.93 C513.72,660.87 513.21,660.81 512.73,660.75 C512.17,660.59 511.63,660.47 511.16,660.39 C509.77,660.15 508.71,659.94 507.94,659.70 C507.15,659.42 506.59,659.12 506.28,658.83 C506.12,658.64 506.04,658.43 506.01,658.20 C506.11,657.79 506.84,657.43 508.25,657.22 C509.66,657.06 511.70,657.00 514.27,657.05 C514.30,657.05 514.33,657.05 514.35,657.05 C517.70,657.15 522.25,657.38 525.75,657.65 L 534.00 658.30 L 534.00 695.65 C534.00,719.88 533.65,733.00 533.00,733.00 C532.36,733.00 531.94,722.46 531.82,703.75 C531.72,687.66 531.45,676.75 531.22,679.50 C530.89,683.32 530.60,684.03 529.97,682.50 C529.24,680.74 529.13,680.84 529.07,683.25 C528.99,686.46 528.75,686.54 525.43,684.36 C524.06,683.47 522.80,682.90 522.64,683.11 C522.47,683.33 521.59,684.61 520.67,685.97 C519.06,688.35 519.00,687.99 519.00,676.72 C519.00,666.49 518.78,664.82 517.08,663.08 C516.79,662.46 516.41,662.22 515.91,661.95 C515.86,661.93 515.81,661.90 515.76,661.87 ZM 645.56 657.69 C645.10,657.91 644.62,658.14 644.12,658.40 C638.55,661.26 633.35,665.69 634.37,666.70 C634.69,667.02 635.53,666.88 636.23,666.38 C636.93,665.88 638.62,665.48 640.00,665.49 C641.38,665.49 642.79,665.09 643.15,664.60 C643.98,663.45 645.40,676.35 644.73,678.93 C644.38,680.28 644.64,680.69 645.61,680.32 C646.08,680.14 646.42,679.85 646.65,679.23 C646.27,680.63 645.62,681.47 644.55,682.55 C642.86,684.23 640.98,685.00 638.55,685.00 C629.01,685.00 627.23,671.40 635.78,663.89 C638.98,661.08 642.09,659.07 645.56,657.69 ZM 476.65 673.75 C476.99,676.64 477.44,679.00 477.64,679.00 C477.82,679.00 477.97,674.94 478.00,669.68 L 478.19 690.75 L 478.45 718.87 C478.25,717.54 478.08,716.16 477.94,714.80 C477.04,706.07 476.46,702.55 476.30,704.35 L 475.81 659.00 L 466.16 658.98 C460.85,658.98 455.83,658.53 455.00,658.00 C453.99,657.34 457.45,657.03 465.69,657.02 L 476.98 657.00 C475.87,657.12 475.70,665.84 476.65,673.75 ZM 484.91 529.25 C484.71,532.00 484.44,534.20 484.08,536.10 C482.58,541.24 479.45,547.83 476.18,552.25 C471.95,557.98 469.99,559.75 471.97,556.06 C472.54,554.99 473.41,553.86 473.90,553.56 C475.73,552.43 481.20,539.56 482.26,533.90 C483.25,528.54 484.56,526.54 484.91,529.25 ZM 483.95 733.13 C486.41,736.02 489.07,737.10 493.87,737.67 C494.79,737.78 495.70,737.83 496.61,737.81 C500.66,738.13 502.63,738.62 501.83,739.12 C499.22,740.78 491.40,740.04 486.91,737.72 C484.52,736.48 483.06,735.31 481.62,733.20 C482.09,733.67 482.54,734.00 482.74,734.00 C483.02,734.00 482.68,733.33 482.00,732.50 C481.32,731.67 481.05,731.00 481.40,731.00 C481.76,731.00 481.37,729.67 480.53,728.05 C480.47,727.93 480.40,727.79 480.34,727.62 L 481.30 729.26 L 481.31 729.28 C482.22,730.83 483.07,732.09 483.95,733.13 ZM 543.50 743.00 C544.22,743.31 544.80,743.54 545.27,743.68 C544.54,743.57 543.53,743.41 542.53,743.26 C539.21,742.77 533.05,738.82 534.73,738.26 C535.33,738.06 537.54,738.82 539.64,739.95 C541.08,740.72 542.72,741.40 543.92,741.75 L 543.92 741.75 C544.46,741.91 544.91,742.00 545.24,742.00 C545.66,742.00 546.05,742.14 546.35,742.37 C545.85,742.17 545.09,742.05 544.25,742.07 C541.81,742.13 541.73,742.24 543.50,743.00 ZM 392.39 624.00 C394.27,624.01 395.22,624.31 395.95,625.33 C395.82,625.72 395.48,626.00 395.08,626.00 C394.58,626.00 393.56,626.19 392.83,626.42 C392.10,626.65 390.94,626.61 390.25,626.34 C387.81,625.35 389.04,624.03 392.39,624.00 ZM 488.50 568.00 C488.84,567.45 490.67,567.00 492.56,567.00 C494.45,567.00 496.00,567.45 496.00,568.00 C496.00,568.55 494.17,569.00 491.94,569.00 C489.49,569.00 488.13,568.60 488.50,568.00 ZM 582.02 683.07 C580.71,687.20 580.50,691.58 580.21,708.55 C580.15,712.19 580.13,715.77 580.14,719.05 C579.99,704.59 580.25,685.00 580.86,685.00 C581.04,685.00 581.48,684.23 582.02,683.07 ZM 476.36 710.40 C476.39,711.26 476.43,712.22 476.48,713.26 C476.77,719.42 477.41,724.04 478.50,727.47 L 476.50 723.50 ZM 403.70 529.38 C405.08,529.51 406.43,529.85 407.71,530.35 C407.05,530.14 406.42,530.03 405.85,530.04 C403.75,530.07 403.83,530.22 406.62,531.44 C408.34,532.18 411.02,534.47 412.58,536.52 C412.91,536.95 413.20,537.34 413.46,537.72 C413.14,537.28 412.78,536.81 412.35,536.29 C410.67,534.21 407.99,532.11 406.40,531.62 C400.35,529.80 399.32,528.94 403.70,529.38 ZM 950.08 965.53 C947.77,966.63 946.00,967.72 946.00,968.06 C946.00,968.38 947.65,969.46 949.91,970.65 C949.66,970.55 949.41,970.45 949.16,970.36 C946.32,969.36 944.00,968.28 944.00,967.98 C944.00,967.68 945.99,966.85 948.42,966.13 C948.96,965.97 949.51,965.77 950.08,965.53 ZM 966.19 987.42 C965.37,984.36 962.98,980.83 959.92,977.71 C962.81,980.61 965.13,983.86 966.03,986.58 C967.33,990.54 968.89,990.89 970.39,987.63 C969.44,990.07 968.42,992.00 968.07,992.00 C967.71,992.00 966.86,989.94 966.19,987.42 ZM 987.33 970.51 C988.87,969.80 990.00,968.89 990.00,968.30 C990.00,967.74 988.72,966.65 986.95,965.65 C987.22,965.76 987.49,965.86 987.75,965.94 C990.09,966.70 992.00,967.64 992.00,968.02 C992.00,968.41 989.91,969.52 987.33,970.51 ZM 970.35 948.26 C969.72,946.95 968.97,946.00 968.50,946.00 C968.05,946.00 967.35,946.86 966.74,948.09 C966.91,947.45 967.00,946.85 967.00,946.30 C967.00,942.68 968.50,943.59 970.35,948.26 ZM 580.00 742.62 C580.00,742.41 579.31,741.68 578.48,740.98 C577.20,739.92 577.06,739.99 577.58,741.36 C578.12,742.76 580.00,743.74 580.00,742.62 ZM 550.90 566.49 C547.94,565.94 545.74,564.28 544.21,561.39 C544.79,562.13 545.55,562.85 546.59,563.75 C547.94,564.92 549.54,565.92 550.90,566.49 ZM 581.16 735.30 C581.87,736.96 583.03,738.36 584.59,739.46 C585.75,740.32 587.08,741.00 588.50,741.44 C584.41,740.73 582.55,739.14 581.16,735.30 ZM 617.66 673.33 C617.30,672.96 617.64,671.67 618.42,670.48 C619.21,669.28 619.41,667.22 619.13,665.12 C619.75,668.36 619.08,671.22 617.66,673.33 ZM 984.69 964.48 C979.59,961.68 972.77,954.39 970.93,949.67 C973.29,954.78 979.53,961.36 984.69,964.48 ZM 477.02 657.00 L 477.88 657.00 L 477.94 663.88 C477.81,659.65 477.48,657.06 477.02,657.00 ZM 579.75 374.92 C591.36,370.61 602.34,367.32 611.85,365.34 C603.18,367.14 591.29,370.73 579.75,374.92 ZM 554.37 385.49 C546.07,389.40 536.95,394.02 529.31,398.11 C534.66,395.24 539.67,392.63 543.92,390.51 C547.39,388.77 550.88,387.10 554.37,385.49 ZM 560.00 569.64 C559.65,568.83 558.59,567.90 557.25,567.65 C556.42,567.49 555.20,567.27 553.95,567.04 C557.53,567.22 560.00,568.25 560.00,569.62 C560.00,569.63 560.00,569.64 560.00,569.64 ZM 970.91 986.38 L 970.94 986.30 C971.67,984.26 974.60,980.27 977.43,977.43 C980.27,974.60 984.26,971.67 986.30,970.94 C980.63,973.52 973.52,980.63 970.91,986.38 ZM 540.16 414.20 C539.49,414.49 538.41,415.07 537.11,415.82 C537.83,415.36 538.30,415.05 538.45,414.91 C539.18,414.21 539.74,413.85 540.16,414.20 ZM 607.86 655.19 C607.18,655.12 606.49,655.09 605.80,655.11 L 601.95 655.21 C603.90,654.93 605.93,654.93 607.86,655.19 ZM 703.42 739.10 C702.96,739.61 701.54,740.00 700.12,740.00 C699.14,740.00 698.12,739.68 697.11,739.08 C699.13,740.23 701.27,740.25 703.42,739.10 ZM 959.03 959.21 C956.42,961.76 953.51,963.96 951.00,965.10 C953.67,963.77 956.50,961.64 959.03,959.21 ZM 490.04 361.46 L 490.07 361.43 C491.93,359.44 494.11,358.73 496.19,359.14 C494.13,358.76 491.95,359.48 490.04,361.46 ZM 430.92 355.29 C430.69,355.17 430.53,355.05 430.46,354.94 C430.39,354.83 430.69,354.72 431.33,354.62 C430.71,354.77 430.55,354.95 430.76,355.16 C430.81,355.21 430.86,355.25 430.92,355.29 ZM 706.94 739.05 C706.80,738.61 706.45,738.29 706.01,738.14 C706.55,738.19 706.89,738.52 706.94,739.05 ZM 412.38 533.18 C413.72,534.34 414.83,535.71 415.62,537.24 C414.86,535.77 413.70,534.36 412.38,533.18 ZM 599.52 399.95 C602.43,396.18 605.37,392.35 608.31,388.50 C605.08,392.73 602.33,396.32 599.52,399.95 ZM 592.89 744.15 L 592.79 744.16 C592.61,744.13 592.43,744.09 592.25,744.06 C592.47,744.09 592.68,744.12 592.89,744.15 Z" fill="rgb(170,108,78)"/>
<path d="M 966.03 986.58 C964.33,981.44 957.60,974.44 951.46,971.44 C948.46,969.97 946.00,968.45 946.00,968.06 C946.00,967.67 948.24,966.35 950.97,965.11 C956.61,962.56 964.27,954.66 966.16,949.44 C966.84,947.55 967.90,946.00 968.50,946.00 C969.10,946.00 970.16,947.55 970.84,949.44 C972.64,954.40 980.24,962.42 985.49,964.89 C987.97,966.06 990.00,967.59 990.00,968.30 C990.00,969.02 988.33,970.20 986.30,970.94 C984.26,971.67 980.27,974.60 977.43,977.43 C974.60,980.27 971.67,984.26 970.94,986.30 C969.27,990.92 967.49,991.02 966.03,986.58 ZM 591.33 743.90 C585.82,742.89 581.36,740.51 579.78,737.74 C577.65,734.00 577.43,696.37 579.48,685.46 C581.19,676.32 583.45,670.54 584.95,671.47 C585.43,671.77 585.72,672.57 585.59,673.25 C585.07,676.09 581.48,685.00 580.86,685.00 C579.92,685.00 579.81,730.93 580.74,734.02 C582.37,739.43 584.46,741.09 590.42,741.70 C593.52,742.02 596.28,742.64 596.55,743.07 C597.38,744.42 595.66,744.69 591.33,743.90 ZM 543.50 743.00 C541.73,742.24 541.81,742.13 544.25,742.07 C545.76,742.03 547.00,742.45 547.00,743.00 C547.00,744.17 546.23,744.17 543.50,743.00 ZM 696.29 740.90 C690.36,738.69 689.00,732.21 689.00,706.07 L 689.00 686.41 L 685.36 686.16 C683.35,686.03 680.88,685.47 679.86,684.92 C678.60,684.25 678.00,684.27 678.00,684.96 C678.00,685.53 677.55,686.00 677.00,686.00 C676.43,686.00 675.99,683.07 675.98,679.25 C675.95,671.68 673.84,665.96 669.66,662.11 C665.39,658.17 652.24,657.91 648.47,661.68 C647.34,662.80 646.91,664.92 647.02,668.89 C647.26,678.16 647.06,679.76 645.61,680.32 C644.64,680.69 644.38,680.28 644.73,678.93 C645.40,676.35 643.98,663.45 643.15,664.60 C642.79,665.09 641.38,665.49 640.00,665.49 C638.62,665.48 636.93,665.88 636.23,666.38 C635.53,666.88 634.69,667.02 634.37,666.70 C633.35,665.69 638.55,661.26 644.12,658.40 C648.54,656.13 651.15,655.56 658.75,655.20 C673.84,654.49 682.57,658.01 687.81,666.92 L 690.50 671.50 L 691.00 702.00 C691.28,718.78 691.90,733.17 692.40,734.00 C694.65,737.76 697.54,740.00 700.12,740.00 C701.64,740.00 703.16,739.55 703.50,739.00 C704.45,737.46 707.00,737.81 707.00,739.48 C707.00,741.67 700.62,742.52 696.29,740.90 ZM 481.14 732.67 C478.39,729.35 476.95,723.37 476.48,713.26 C475.88,700.21 476.50,700.87 477.94,714.80 C478.52,720.47 479.69,726.43 480.53,728.05 C481.37,729.67 481.76,731.00 481.40,731.00 C481.05,731.00 481.32,731.67 482.00,732.50 C482.68,733.33 483.02,734.00 482.74,734.00 C482.47,734.00 481.75,733.40 481.14,732.67 ZM 647.00 700.42 C647.00,698.75 666.76,694.00 673.70,694.00 C675.72,694.00 675.91,694.23 674.82,695.30 C673.21,696.89 659.80,699.52 657.62,698.68 C656.75,698.35 654.01,698.69 651.52,699.44 C649.04,700.19 647.00,700.63 647.00,700.42 ZM 476.65 673.75 C475.69,665.79 475.88,657.00 477.00,657.00 C477.61,657.00 478.00,661.33 478.00,668.00 C478.00,674.05 477.84,679.00 477.64,679.00 C477.44,679.00 476.99,676.64 476.65,673.75 ZM 616.68 670.61 C617.42,666.05 615.46,660.53 612.39,658.52 C611.01,657.62 607.99,656.50 605.69,656.05 L 601.50 655.22 L 605.80 655.11 C610.24,655.00 614.69,656.72 616.92,659.41 C619.21,662.16 620.01,668.06 618.42,670.48 C617.64,671.68 617.29,672.96 617.66,673.33 C618.03,673.70 617.84,674.00 617.23,674.00 C616.53,674.00 616.33,672.75 616.68,670.61 ZM 420.32 568.75 C417.27,565.35 416.81,563.46 416.09,551.37 C415.48,541.21 415.18,539.93 412.58,536.52 C411.02,534.47 408.34,532.18 406.62,531.44 C403.83,530.22 403.75,530.07 405.85,530.04 C408.97,529.99 413.66,533.43 415.62,537.24 C416.63,539.19 417.49,544.59 417.96,552.02 C418.74,564.16 418.96,565.01 422.32,568.75 C423.44,569.99 423.90,571.00 423.35,571.00 C422.80,571.00 421.44,569.99 420.32,568.75 ZM 558.00 570.13 C558.00,569.65 555.82,568.97 553.15,568.61 C546.77,567.77 541.24,563.11 539.96,557.50 C538.68,551.89 538.72,479.00 540.00,479.00 C540.65,479.00 541.01,490.94 541.03,512.75 C541.05,531.31 541.46,549.52 541.93,553.22 C542.99,561.40 545.85,565.60 551.00,566.51 C552.92,566.85 555.74,567.37 557.25,567.65 C559.78,568.12 561.29,571.00 559.00,571.00 C558.45,571.00 558.00,570.61 558.00,570.13 ZM 648.58 569.27 C646.38,568.94 646.00,568.61 647.08,567.93 C648.25,567.19 648.21,567.03 646.82,567.02 C645.55,567.00 645.24,566.29 645.52,564.03 C645.91,560.98 647.71,556.89 649.06,556.00 C649.48,555.72 648.96,554.43 647.91,553.14 C646.86,551.84 646.00,551.21 646.00,551.73 C646.00,552.25 644.94,553.16 643.64,553.75 C641.41,554.77 641.30,554.66 641.57,551.66 C641.72,549.92 641.63,549.04 641.36,549.69 C640.85,550.94 639.59,550.71 634.43,548.43 C631.30,547.05 629.00,543.46 629.00,539.95 C629.00,538.88 628.60,538.00 628.12,538.00 C626.91,538.00 625.99,534.17 627.11,533.80 C627.61,533.63 627.11,531.81 626.01,529.75 C623.74,525.52 623.30,523.16 625.50,527.00 C626.29,528.38 626.95,528.94 626.96,528.27 C627.02,526.22 621.67,521.08 619.00,520.61 C617.62,520.37 615.72,519.87 614.77,519.49 C612.69,518.66 609.91,513.40 610.60,511.60 C610.88,510.88 609.40,508.80 607.32,506.97 C602.96,503.15 600.84,499.58 601.65,497.47 C601.99,496.59 601.63,496.00 600.76,496.00 C599.05,496.00 595.73,492.61 596.59,491.74 C597.32,491.01 591.29,482.05 589.95,481.88 C589.43,481.81 588.44,481.69 587.75,481.62 C587.06,481.55 586.44,480.82 586.37,480.00 C585.98,475.74 585.86,475.49 585.12,477.37 C584.43,479.13 584.29,479.14 582.69,477.55 C581.21,476.06 581.00,476.05 581.00,477.43 C581.00,479.32 580.26,479.43 578.68,477.75 C577.17,476.15 576.78,467.75 578.26,468.66 C579.54,469.45 578.60,467.71 575.42,463.41 C573.87,461.31 572.40,460.39 570.82,460.53 C569.55,460.64 567.76,460.09 566.85,459.30 C565.94,458.51 564.59,457.99 563.85,458.14 C563.11,458.30 561.47,457.85 560.21,457.15 C558.14,456.01 557.60,456.21 554.71,459.21 C552.94,461.04 550.54,463.87 549.37,465.52 C548.19,467.16 546.95,468.23 546.60,467.90 C546.25,467.57 548.21,464.87 550.96,461.90 C553.70,458.93 555.96,456.19 555.97,455.81 C555.99,455.42 563.86,445.19 573.47,433.07 C592.44,409.13 597.84,402.22 608.31,388.50 C614.79,380.00 615.46,379.43 620.31,378.31 C623.14,377.65 625.55,377.22 625.68,377.35 C625.81,377.48 620.02,384.54 612.80,393.04 C595.68,413.21 568.00,447.82 568.00,449.06 C568.00,449.59 579.74,464.53 594.08,482.26 C608.43,499.99 626.53,522.38 634.32,532.00 C642.10,541.62 649.59,550.85 650.97,552.50 C656.44,559.03 663.56,565.02 667.37,566.29 C674.91,568.80 673.03,570.01 661.83,569.85 C656.15,569.77 650.18,569.51 648.58,569.27 ZM 539.00 444.50 C539.00,429.38 538.63,417.00 538.19,417.00 C537.74,417.00 536.10,418.33 534.55,419.95 C531.96,422.66 526.54,424.87 525.37,423.70 C524.87,423.21 539.50,414.00 540.79,414.00 C541.18,414.00 541.50,427.05 541.50,443.00 C541.50,465.53 541.22,472.00 540.25,472.00 C539.28,472.00 539.00,465.83 539.00,444.50 ZM 521.39 413.43 C521.72,412.55 522.00,411.65 522.00,411.42 C522.00,411.19 523.27,411.00 524.81,411.00 C527.38,411.00 529.42,409.62 532.71,405.64 C534.16,403.88 532.90,402.51 528.90,401.51 C526.99,401.03 525.56,401.49 523.41,403.29 C519.42,406.62 514.20,409.19 512.21,408.80 C509.47,408.27 541.93,390.83 562.42,381.81 C577.92,375.00 598.64,368.09 611.85,365.34 C622.26,363.16 627.33,362.68 640.50,362.61 C656.73,362.51 661.89,363.20 674.78,367.17 C682.31,369.48 682.31,371.33 674.78,369.30 C671.38,368.38 664.16,367.85 654.50,367.81 C637.62,367.74 622.34,370.25 605.19,375.91 C593.54,379.75 565.02,392.68 547.72,401.96 C540.51,405.83 533.90,409.00 533.03,409.00 C532.17,409.00 529.90,410.05 527.98,411.33 C522.97,414.68 520.62,415.43 521.39,413.43 ZM 484.40 409.93 C484.75,407.69 484.74,397.36 484.37,386.98 L 483.69 368.11 L 479.34 365.81 C476.94,364.54 474.75,362.77 474.46,361.87 C474.17,360.97 473.14,359.32 472.17,358.20 C470.58,356.36 469.10,356.13 457.45,355.94 C450.33,355.83 441.67,355.87 438.21,356.03 C434.38,356.21 431.47,355.87 430.76,355.16 C429.88,354.28 435.33,354.00 453.55,354.00 C466.72,354.00 496.28,353.83 519.25,353.62 C559.60,353.25 561.00,353.30 561.00,355.12 C561.00,356.68 560.24,357.00 556.46,357.00 C550.82,357.00 544.79,359.97 543.16,363.54 C542.48,365.03 541.66,370.38 541.33,375.43 L 540.72 384.61 L 529.11 390.49 C522.73,393.72 514.69,398.08 511.25,400.17 C507.81,402.26 504.95,403.87 504.88,403.74 C504.81,403.61 504.60,395.91 504.42,386.63 C504.23,377.35 503.60,368.31 503.01,366.54 C500.58,359.16 494.46,356.75 490.07,361.43 C487.07,364.61 486.10,373.04 486.04,396.25 C486.01,408.73 485.67,414.00 484.87,414.00 C484.11,414.00 483.96,412.67 484.40,409.93 ZM 610.56 358.48 C609.49,357.67 606.72,357.00 604.39,357.00 C599.20,357.00 597.00,356.22 597.00,354.38 C597.00,353.19 601.71,353.01 626.75,353.24 C652.41,353.46 656.50,353.71 656.50,355.00 C656.50,356.24 653.79,356.61 640.71,357.15 C632.02,357.50 623.25,358.08 621.21,358.43 C619.17,358.78 616.38,359.27 615.00,359.52 C613.62,359.76 611.63,359.30 610.56,358.48 ZM 487.50 342.65 C483.38,340.80 481.80,338.63 482.18,335.31 C482.45,332.93 482.95,332.50 485.50,332.50 C488.23,332.50 488.60,332.91 489.58,337.00 C490.74,341.80 492.42,342.88 495.36,340.72 C497.97,338.82 499.42,324.84 498.51,310.31 C497.87,300.15 497.56,298.70 495.89,298.26 C491.43,297.09 494.62,296.00 502.50,296.00 C511.26,296.00 513.24,297.02 508.00,298.85 L 505.00 299.90 L 505.00 317.20 C504.99,332.57 504.78,334.86 503.05,337.69 C501.98,339.44 500.29,341.31 499.29,341.85 C495.91,343.66 490.57,344.02 487.50,342.65 ZM 567.07 342.95 C565.74,342.39 563.71,342.06 562.57,342.22 C560.73,342.47 560.47,341.91 560.20,337.25 C559.85,331.13 561.28,330.35 563.43,335.49 C564.37,337.73 566.14,339.57 568.38,340.65 C571.65,342.20 572.04,342.20 574.44,340.63 C576.20,339.48 577.00,338.06 577.00,336.10 C577.00,332.77 575.62,331.43 568.63,327.95 C559.06,323.18 557.46,315.32 565.01,310.19 C567.86,308.26 569.23,307.95 572.50,308.51 C574.70,308.88 577.51,309.19 578.75,309.20 C580.80,309.21 580.99,309.67 580.94,314.36 C580.89,318.72 580.70,319.22 579.69,317.64 C576.14,312.10 574.78,311.00 571.50,311.00 C568.36,311.00 565.00,313.06 565.00,314.99 C565.00,317.63 566.96,319.46 573.05,322.53 C580.70,326.38 583.00,328.96 583.00,333.71 C583.00,340.54 573.91,345.81 567.07,342.95 ZM 512.50 342.00 C512.16,341.45 512.75,341.00 513.82,341.00 C517.71,341.00 518.06,339.07 517.77,318.88 L 517.50 299.53 L 514.50 298.01 C511.56,296.53 511.67,296.49 519.87,296.21 C527.58,295.94 531.33,296.62 528.23,297.73 C524.85,298.93 524.00,301.20 524.00,309.01 C524.00,313.34 524.37,317.11 524.83,317.39 C525.57,317.85 531.38,312.24 539.51,303.19 L 542.49 299.88 L 540.00 297.96 L 537.50 296.04 L 544.25 296.02 C551.33,296.00 552.70,296.90 548.48,298.83 C545.91,300.00 531.50,314.54 531.50,315.97 C531.50,317.32 550.06,337.40 553.11,339.35 C554.70,340.36 555.75,341.60 555.44,342.10 C554.71,343.27 539.00,343.28 539.00,342.11 C539.00,341.62 539.67,340.95 540.50,340.64 C541.33,340.32 542.00,339.60 542.00,339.04 C542.00,337.37 526.97,321.00 525.43,321.00 C524.32,321.00 524.03,322.52 524.12,327.75 C524.29,337.60 525.09,340.44 527.77,340.82 C529.01,341.00 529.77,341.56 529.46,342.07 C528.68,343.33 513.28,343.26 512.50,342.00 ZM 554.97 306.31 C556.97,303.77 556.99,303.57 555.29,302.65 C553.02,301.41 552.03,299.95 552.02,297.82 C552.00,295.59 555.38,294.60 558.08,296.04 C559.86,297.00 560.13,297.80 559.65,300.74 C559.10,304.14 555.63,309.00 553.75,309.00 C553.26,309.00 553.81,307.79 554.97,306.31 Z" fill="rgb(202,170,143)"/>
</g>
</svg>